<svg id="Capa_1" data-name="Capa 1" xmlns="http://www.w3.org/2000/svg" viewBox="0 0 1485.53 159.46"><defs><style>.cls-1,.cls-2{fill:#f2a900;}.cls-2{font-size:48px;font-family:FONTSPRINGDEMO-IntensivaBlackRegular, FONTSPRING DEMO - Intensiva Black;font-weight:800;}</style></defs><path class="cls-1" d="M681.13,468.84V457.68h11.23v51.19a17.68,17.68,0,0,1-.72,4.94,29.54,29.54,0,0,1-1.73,4.57,21.85,21.85,0,0,1-3.78,5,25,25,0,0,1-5,3.81,27,27,0,0,1-4.57,1.69,18.45,18.45,0,0,1-4.94.69H591.06a18.15,18.15,0,0,1-5-.69,29.87,29.87,0,0,1-4.57-1.69,24,24,0,0,1-5-3.81,22.27,22.27,0,0,1-3.74-5,17,17,0,0,1-1.84-4.57,20.49,20.49,0,0,1-.61-4.94V503h11.16v5.9a8.78,8.78,0,0,0,.76,3.6,9.6,9.6,0,0,0,2,3,10.38,10.38,0,0,0,3,2.09,9,9,0,0,0,3.75.79h80.56a8.65,8.65,0,0,0,3.6-.79,10.19,10.19,0,0,0,5.12-5.12,8.65,8.65,0,0,0,.79-3.6v-40Z" transform="translate(-217.41 -457.32)"/><path class="cls-1" d="M777.25,499.08l-4.9-5.47-4.89-5.47-11.52-13.39-38,43.63-9.72,11.16H693.37l1.65-1.8,8.14-9.36,16.63-19.3,4.83-5.47,4.89-5.47,16.63-19.3,2.24-2.59,7.56-8.57,7.27,8.57,2.45,2.59,16.63,19.3,4.89,5.47,4.9,5.47,16.63,19.3,8.14,9.36,1.58,1.8H803.6l-9.72-11.16Z" transform="translate(-217.41 -457.32)"/><path class="cls-1" d="M1168.35,457.32a18.68,18.68,0,0,1,7.45,1.51A19.76,19.76,0,0,1,1186.1,469a17.92,17.92,0,0,1,1.55,7.41V510a18,18,0,0,1-1.55,7.42,19.69,19.69,0,0,1-10.3,10.15,18.51,18.51,0,0,1-7.45,1.51H1084.9a18.73,18.73,0,0,1-7.48-1.51,19.64,19.64,0,0,1-6.16-4.1,19.38,19.38,0,0,1-4.14-6,18.27,18.27,0,0,1-1.51-7.42V476.4a18.22,18.22,0,0,1,1.51-7.41,19.27,19.27,0,0,1,4.14-6.05,19.67,19.67,0,0,1,6.16-4.11,18.9,18.9,0,0,1,7.48-1.51Zm-83.45,11.23a8.26,8.26,0,0,0-5.72,2.31,8,8,0,0,0-1.76,2.52,7.17,7.17,0,0,0-.65,3V510a7.18,7.18,0,0,0,.65,3,8,8,0,0,0,1.76,2.52,8.9,8.9,0,0,0,2.59,1.73,7.72,7.72,0,0,0,3.13.64h83.45a7.72,7.72,0,0,0,3.13-.64,9,9,0,0,0,2.6-1.73,8.12,8.12,0,0,0,1.76-2.52,7.33,7.33,0,0,0,.65-3V476.4a7.32,7.32,0,0,0-.65-3,8.23,8.23,0,0,0-7.49-4.83Z" transform="translate(-217.41 -457.32)"/><path class="cls-1" d="M1206.51,499.08v30.46h-11.16v-41.4h102.31a9.92,9.92,0,0,0,6-3.17,10.21,10.21,0,0,0,1.84-3,9.51,9.51,0,0,0,.68-3.56,9.12,9.12,0,0,0-.68-3.46,9.93,9.93,0,0,0-1.84-2.91,10.55,10.55,0,0,0-2.74-2.13,9.47,9.47,0,0,0-3.31-1.08h-92.52l-9.79-11.16h101.3a19.58,19.58,0,0,1,5.69.83,21.25,21.25,0,0,1,5.11,2.3,20.8,20.8,0,0,1,4.29,3.53,21.05,21.05,0,0,1,3.2,4.5,25.74,25.74,0,0,1,1.77,4.65,18.71,18.71,0,0,1,.68,4.93,18.45,18.45,0,0,1-.68,5,31.65,31.65,0,0,1-1.77,4.72A16.73,16.73,0,0,1,1313,491a34,34,0,0,1-2.34,2.59,34,34,0,0,1,2.34,2.59,16.73,16.73,0,0,1,1.91,2.88,31.19,31.19,0,0,1,1.77,4.75,19,19,0,0,1,.68,5v20.67h-11.16V508.87a9.17,9.17,0,0,0-.79-3.74,10.65,10.65,0,0,0-2.09-3.13,10,10,0,0,0-3-2.13,8.88,8.88,0,0,0-3.68-.79Z" transform="translate(-217.41 -457.32)"/><path class="cls-1" d="M1335.75,499.08v30.46h-11.16v-41.4H1426.9a9.92,9.92,0,0,0,6-3.17,10.21,10.21,0,0,0,1.84-3,9.51,9.51,0,0,0,.68-3.56,9.12,9.12,0,0,0-.68-3.46,9.93,9.93,0,0,0-1.84-2.91,10.55,10.55,0,0,0-2.74-2.13,9.47,9.47,0,0,0-3.31-1.08h-92.52l-9.79-11.16h101.3a19.58,19.58,0,0,1,5.69.83,21.25,21.25,0,0,1,5.11,2.3,20.8,20.8,0,0,1,4.29,3.53,21.05,21.05,0,0,1,3.2,4.5,25.74,25.74,0,0,1,1.77,4.65,18.71,18.71,0,0,1,.68,4.93,18.45,18.45,0,0,1-.68,5,31.65,31.65,0,0,1-1.77,4.72,16.73,16.73,0,0,1-1.91,2.88,34,34,0,0,1-2.34,2.59,34,34,0,0,1,2.34,2.59,16.73,16.73,0,0,1,1.91,2.88,31.19,31.19,0,0,1,1.77,4.75,19,19,0,0,1,.68,5v20.67h-11.16V508.87a9.17,9.17,0,0,0-.79-3.74,10.65,10.65,0,0,0-2.09-3.13,10,10,0,0,0-3-2.13,8.88,8.88,0,0,0-3.68-.79Z" transform="translate(-217.41 -457.32)"/><path class="cls-1" d="M495.56,606.84H343c14.84-11.44,28-21.78,41.41-31.67,2.05-1.51,5.63-1.22,8.51-1.24,14.13-.11,28.27,0,44.22,0-13.64-22.79-26.48-44.23-39.74-66.36-20.1,15.86-39.78,31.37-59.44,46.9q-31,24.45-61.95,48.9c-2,1.59-4.48,3.69-6.77,3.74-16.4.32-32.81.17-51.87.17L406.69,457.72Z" transform="translate(-217.41 -457.32)"/><text class="cls-2" transform="translate(352.89 149.09)">C O N S T R U C T O R A</text><path class="cls-1" d="M820.45,467.33A37.85,37.85,0,0,1,831.68,460a34.12,34.12,0,0,1,13.53-2.7h86.12v11.23H845.21a24,24,0,0,0-8.27,1.44,25,25,0,0,0-7.13,4,23.91,23.91,0,0,0-5.4,6.05,24.15,24.15,0,0,0-3.17,7.63q-.29,1.38-.54,2.7a14.82,14.82,0,0,0-.25,2.78v.14a14.71,14.71,0,0,0,.25,2.77c.17.89.35,1.81.54,2.77a23.71,23.71,0,0,0,3.17,7.6,24.64,24.64,0,0,0,12.53,10,24,24,0,0,0,8.27,1.44h86.12V529H845.21a34.12,34.12,0,0,1-13.53-2.7,38.63,38.63,0,0,1-11.23-7.23c-.24-.24-.45-.46-.61-.65a5.92,5.92,0,0,0-.62-.58,36.52,36.52,0,0,1-6.12-8.74,33.61,33.61,0,0,1-3.24-10.34c-.19-1-.33-1.89-.43-2.8a26.72,26.72,0,0,1-.14-2.88,25,25,0,0,1,.14-2.78c.1-.88.24-1.78.43-2.7a33.62,33.62,0,0,1,3.24-10.4,35.41,35.41,0,0,1,6.12-8.68c.24-.24.45-.45.62-.64A3.79,3.79,0,0,1,820.45,467.33Z" transform="translate(-217.41 -457.32)"/><path class="cls-1" d="M1004.91,487.63V529H993.75V468.55H938.53V457.32h121.82v11.23h-55.44Z" transform="translate(-217.41 -457.32)"/><polyline class="cls-1" points="713.91 0 721.11 0 721.11 11.23 713.91 11.23"/><polygon class="cls-1" points="490.79 72.22 573 72.22 562.92 62.14 499.56 62.14 490.79 72.22"/><polyline class="cls-1" points="1234.47 11.52 1234.47 0.36 1244.19 11.52"/><polyline class="cls-1" points="1245.63 41.76 1234.47 41.76 1234.47 30.82"/><polyline class="cls-1" points="1245.63 61.06 1234.47 61.06 1234.47 72.22"/><polygon class="cls-1" points="1326.55 41.76 1315.86 30.82 1251.54 30.82 1245.63 30.82 1234.47 30.82 1234.47 41.76 1245.63 41.76 1326.55 41.76"/><polygon class="cls-1" points="1245.63 11.52 1251.54 11.52 1297.02 11.52 1286.12 0.36 1245.63 0.36 1234.47 0.36 1244.19 11.52 1245.63 11.52"/><polygon class="cls-1" points="1247.12 61.06 1234.47 61.06 1234.47 72.22 1245.63 72.22 1356.3 72.22 1345.4 61.06 1247.12 61.06"/><path class="cls-1" d="M1601.65,499.08" transform="translate(-217.41 -457.32)"/><path class="cls-1" d="M1580.91,529.54" transform="translate(-217.41 -457.32)"/><path class="cls-1" d="M1590.7,518.38" transform="translate(-217.41 -457.32)"/><path class="cls-1" d="M1580.91,529.54" transform="translate(-217.41 -457.32)"/><path class="cls-1" d="M1699.79,499.08a20.73,20.73,0,0,0-5.48-5.47,27.23,27.23,0,0,0-8.17-4,33.41,33.41,0,0,0-9.94-1.44H1572.28a14.29,14.29,0,0,1-4.74-.79,13.56,13.56,0,0,1-3.9-2.13,11.1,11.1,0,0,1-2.69-3.09,7.33,7.33,0,0,1-1-3.71,7.09,7.09,0,0,1,1-3.67,10.74,10.74,0,0,1,2.69-3,14.19,14.19,0,0,1,8.64-2.88h118L1703,457.68H1572.28a29.65,29.65,0,0,0-6.45.69,39.34,39.34,0,0,0-5.9,1.76,29.36,29.36,0,0,0-6.41,3.74,23.85,23.85,0,0,0-4.83,5,21,21,0,0,0-3.16,9.58v.21a21,21,0,0,0,1,5,18,18,0,0,0,2.18,4.5,18.65,18.65,0,0,0,5.48,5.47q1.39.93,2.79,1.8a15.11,15.11,0,0,0,3,1.44,33.81,33.81,0,0,0,12.35,2.23H1676.2a15.57,15.57,0,0,1,4.83.87,13.05,13.05,0,0,1,3.9,2.12,10.26,10.26,0,0,1,2.65,3.1,7.53,7.53,0,0,1,1,3.7,7,7,0,0,1-1,3.6,10.74,10.74,0,0,1-2.69,3,14.09,14.09,0,0,1-3.9,2.09,14.29,14.29,0,0,1-4.74.79v11.16a32.25,32.25,0,0,0,13.93-3.13,26.62,26.62,0,0,0,5.53-3.53,22.06,22.06,0,0,0,4.13-4.5,20.76,20.76,0,0,0,2.28-4.57,14.59,14.59,0,0,0,0-10A26.85,26.85,0,0,0,1699.79,499.08Z" transform="translate(-217.41 -457.32)"/><path class="cls-1" d="M1676.2,518.38h-95.29l11.15,11.15h84.14" transform="translate(-217.41 -457.32)"/><polyline class="cls-1" points="1472.9 11.52 1485.54 11.52 1485.54 0.36"/></svg>