<svg id="Capa_1" data-name="Capa 1" xmlns="http://www.w3.org/2000/svg" viewBox="0 0 1485.53 149.54"><defs><style>.cls-1{fill:#f2a900;}</style></defs><path class="cls-1" d="M680.72,508.23V497.07H692v51.2a18,18,0,0,1-.72,4.93,30.59,30.59,0,0,1-1.73,4.57,21.85,21.85,0,0,1-3.78,5,24.38,24.38,0,0,1-5,3.81,26.42,26.42,0,0,1-4.57,1.7,18.71,18.71,0,0,1-4.93.68H590.65a18.4,18.4,0,0,1-5-.68,29.9,29.9,0,0,1-4.57-1.7,23.36,23.36,0,0,1-5-3.81,22.31,22.31,0,0,1-3.75-5,17,17,0,0,1-1.83-4.57,20.47,20.47,0,0,1-.61-4.93v-5.91h11.16v5.91a9,9,0,0,0,.75,3.6,9.9,9.9,0,0,0,2,3,10.57,10.57,0,0,0,3,2.09,8.83,8.83,0,0,0,3.74.79h80.57a8.5,8.5,0,0,0,3.6-.79,10.38,10.38,0,0,0,3-2.09,10.2,10.2,0,0,0,2.09-3,8.57,8.57,0,0,0,.79-3.6v-40Z" transform="translate(-217.01 -458.11)"/><path class="cls-1" d="M776.84,538.47,772,533l-4.9-5.47-11.52-13.39-38,43.63-9.71,11.16H693l1.66-1.8,8.14-9.36,16.63-19.3,4.82-5.47,4.9-5.47,16.63-19.3,2.23-2.59,7.56-8.57,7.27,8.57,2.45,2.59,16.63,19.3,4.9,5.47,4.9,5.47,16.63,19.3,8.13,9.36,1.59,1.8H803.2l-9.73-11.16Z" transform="translate(-217.01 -458.11)"/><path class="cls-1" d="M1168,496.71a18.52,18.52,0,0,1,7.45,1.52,19.63,19.63,0,0,1,10.29,10.15,17.77,17.77,0,0,1,1.55,7.41v33.56a17.77,17.77,0,0,1-1.55,7.41,19.63,19.63,0,0,1-10.29,10.15,18.52,18.52,0,0,1-7.45,1.52H1084.5a18.78,18.78,0,0,1-7.49-1.52,19.7,19.7,0,0,1-6.16-4.1,19.27,19.27,0,0,1-4.14-6,18.39,18.39,0,0,1-1.51-7.41V515.79a18.39,18.39,0,0,1,1.51-7.41,19.27,19.27,0,0,1,4.14-6.05,19.7,19.7,0,0,1,6.16-4.1,18.78,18.78,0,0,1,7.49-1.52ZM1084.5,508a8,8,0,0,0-3.13.61,8.28,8.28,0,0,0-2.6,1.69,8.12,8.12,0,0,0-1.76,2.52,7.32,7.32,0,0,0-.65,3v33.56a7.32,7.32,0,0,0,.65,3,8.12,8.12,0,0,0,1.76,2.52,8.75,8.75,0,0,0,2.6,1.73,7.7,7.7,0,0,0,3.13.65H1168a7.73,7.73,0,0,0,3.13-.65,8.71,8.71,0,0,0,2.59-1.73,8.12,8.12,0,0,0,1.76-2.52,7.17,7.17,0,0,0,.65-3V515.79a7.17,7.17,0,0,0-.65-3,8.12,8.12,0,0,0-1.76-2.52,8.23,8.23,0,0,0-2.59-1.69A8,8,0,0,0,1168,508Z" transform="translate(-217.01 -458.11)"/><path class="cls-1" d="M1206.1,538.47v30.46H1195v-41.4h102.31a9.79,9.79,0,0,0,6-3.17,10.39,10.39,0,0,0,1.83-3,9.29,9.29,0,0,0,.69-3.56,8.94,8.94,0,0,0-.69-3.46,10.11,10.11,0,0,0-1.83-2.91,10.71,10.71,0,0,0-2.74-2.13,9.54,9.54,0,0,0-3.31-1.08h-92.52L1195,497.07h101.3a19.63,19.63,0,0,1,5.69.83,21.2,21.2,0,0,1,9.39,5.83,21.46,21.46,0,0,1,3.21,4.5,25,25,0,0,1,1.76,4.65,18.33,18.33,0,0,1,.69,4.93,18,18,0,0,1-.69,5,30.54,30.54,0,0,1-1.76,4.72,17.33,17.33,0,0,1-1.91,2.88c-.75.91-1.53,1.78-2.34,2.59.81.82,1.59,1.68,2.34,2.59a18.2,18.2,0,0,1,1.91,2.88,29.87,29.87,0,0,1,1.76,4.76,18.47,18.47,0,0,1,.69,5v20.66h-11.16V548.27a9.19,9.19,0,0,0-.8-3.75,10.44,10.44,0,0,0-2.08-3.13,9.92,9.92,0,0,0-3-2.12,8.66,8.66,0,0,0-3.67-.8Z" transform="translate(-217.01 -458.11)"/><path class="cls-1" d="M1335.35,538.47v30.46h-11.17v-41.4H1426.5a9.79,9.79,0,0,0,6-3.17,10.18,10.18,0,0,0,1.83-3,9.29,9.29,0,0,0,.69-3.56,8.94,8.94,0,0,0-.69-3.46,9.9,9.9,0,0,0-1.83-2.91,10.71,10.71,0,0,0-2.74-2.13,9.54,9.54,0,0,0-3.31-1.08H1334l-9.8-11.16h101.31a19.63,19.63,0,0,1,5.69.83,21.14,21.14,0,0,1,12.6,10.33,25.72,25.72,0,0,1,1.76,4.65,18.33,18.33,0,0,1,.69,4.93,18,18,0,0,1-.69,5,31.6,31.6,0,0,1-1.76,4.72,17.33,17.33,0,0,1-1.91,2.88,34.16,34.16,0,0,1-2.34,2.59c.82.82,1.59,1.68,2.34,2.59a18.2,18.2,0,0,1,1.91,2.88,30.87,30.87,0,0,1,1.76,4.76,18.47,18.47,0,0,1,.69,5v20.66h-11.16V548.27a9.19,9.19,0,0,0-.8-3.75,10.46,10.46,0,0,0-2.09-3.13,9.75,9.75,0,0,0-3-2.12,8.66,8.66,0,0,0-3.67-.8Z" transform="translate(-217.01 -458.11)"/><path class="cls-1" d="M495.16,607.23H342.63c14.85-11.44,28-21.78,41.41-31.67,2-1.51,5.64-1.22,8.52-1.24,14.13-.11,28.26-.05,44.22-.05-13.65-22.79-26.49-44.22-39.74-66.36-20.1,15.86-39.78,31.37-59.44,46.9q-31,24.45-62,48.9c-2,1.59-4.48,3.69-6.77,3.74-16.4.32-32.8.17-51.86.17L406.29,458.11Z" transform="translate(-217.01 -458.11)"/><path class="cls-1" d="M820,506.72a38,38,0,0,1,11.24-7.31,34.12,34.12,0,0,1,13.53-2.7h86.11V508H844.81a24,24,0,0,0-8.28,1.44,25.17,25.17,0,0,0-7.13,4A24.47,24.47,0,0,0,820.83,527c-.19.91-.37,1.81-.53,2.7a14.63,14.63,0,0,0-.26,2.77v.14a14.63,14.63,0,0,0,.26,2.77c.16.89.34,1.82.53,2.78a24,24,0,0,0,3.17,7.59,24.72,24.72,0,0,0,12.53,10.05,24,24,0,0,0,8.28,1.44h86.11v11.16H844.81a34.12,34.12,0,0,1-13.53-2.7A38.84,38.84,0,0,1,820,558.49c-.24-.24-.44-.46-.61-.65a4.86,4.86,0,0,0-.61-.57,36.78,36.78,0,0,1-6.12-8.75,33.63,33.63,0,0,1-3.24-10.33c-.19-1-.34-1.9-.43-2.81a26.39,26.39,0,0,1-.15-2.88,24.63,24.63,0,0,1,.15-2.77,26.08,26.08,0,0,1,.43-2.7,33.6,33.6,0,0,1,3.24-10.41,35.17,35.17,0,0,1,6.12-8.67c.24-.24.44-.46.61-.65A4.9,4.9,0,0,1,820,506.72Z" transform="translate(-217.01 -458.11)"/><path class="cls-1" d="M1004.51,527v41.4H993.35V508H938.12V496.71H1060V508h-55.44Z" transform="translate(-217.01 -458.11)"/><polyline class="cls-1" points="713.91 38.6 721.11 38.6 721.11 49.84 713.91 49.84"/><polygon class="cls-1" points="490.79 110.82 573 110.82 562.92 100.74 499.56 100.74 490.79 110.82"/><polyline class="cls-1" points="1234.47 50.12 1234.47 38.96 1244.19 50.12"/><polyline class="cls-1" points="1245.63 80.36 1234.47 80.36 1234.47 69.42"/><polyline class="cls-1" points="1245.63 99.66 1234.47 99.66 1234.47 110.82"/><polygon class="cls-1" points="1326.55 80.36 1315.86 69.42 1251.54 69.42 1245.63 69.42 1234.47 69.42 1234.47 80.36 1245.63 80.36 1326.55 80.36"/><polygon class="cls-1" points="1245.63 50.12 1251.54 50.12 1297.02 50.12 1286.12 38.96 1245.63 38.96 1234.47 38.96 1244.19 50.12 1245.63 50.12"/><polygon class="cls-1" points="1247.12 99.66 1234.47 99.66 1234.47 110.82 1245.63 110.82 1356.3 110.82 1345.4 99.66 1247.12 99.66"/><path class="cls-1" d="M1601.24,538.47" transform="translate(-217.01 -458.11)"/><path class="cls-1" d="M1580.51,568.93" transform="translate(-217.01 -458.11)"/><path class="cls-1" d="M1590.3,557.77" transform="translate(-217.01 -458.11)"/><path class="cls-1" d="M1580.51,568.93" transform="translate(-217.01 -458.11)"/><path class="cls-1" d="M1699.39,538.47a20.88,20.88,0,0,0-5.48-5.47,27.47,27.47,0,0,0-8.17-4,33.41,33.41,0,0,0-9.94-1.44H1571.88a14,14,0,0,1-4.74-.79,13.3,13.3,0,0,1-3.9-2.13,10.81,10.81,0,0,1-2.69-3.09,7.22,7.22,0,0,1-1-3.71,7,7,0,0,1,1-3.67,10.72,10.72,0,0,1,2.69-3,13.68,13.68,0,0,1,3.9-2.08,14,14,0,0,1,4.74-.8h118l12.64-11.16H1571.88a29.74,29.74,0,0,0-6.46.69,39.69,39.69,0,0,0-5.9,1.76,28.93,28.93,0,0,0-6.4,3.75,23.57,23.57,0,0,0-4.83,5,21,21,0,0,0-3.16,9.58V518a21,21,0,0,0,1,5,19.22,19.22,0,0,0,7.67,10c.92.63,1.85,1.23,2.78,1.8a15.67,15.67,0,0,0,3,1.44,33.87,33.87,0,0,0,12.36,2.23H1675.8a15.68,15.68,0,0,1,4.83.87,13.54,13.54,0,0,1,3.9,2.12,10.4,10.4,0,0,1,2.65,3.1,7.64,7.64,0,0,1,1,3.71,7,7,0,0,1-1,3.6,10.7,10.7,0,0,1-2.69,3,14.23,14.23,0,0,1-3.9,2.09,14,14,0,0,1-4.74.79v11.16a32.25,32.25,0,0,0,13.93-3.13,27.16,27.16,0,0,0,5.53-3.53,22.64,22.64,0,0,0,4.13-4.5,20.73,20.73,0,0,0,2.27-4.57,14.4,14.4,0,0,0,0-10A26.56,26.56,0,0,0,1699.39,538.47Z" transform="translate(-217.01 -458.11)"/><path class="cls-1" d="M1675.8,557.77h-95.29l11.15,11.15h84.14" transform="translate(-217.01 -458.11)"/><polyline class="cls-1" points="1472.9 50.12 1485.54 50.12 1485.54 38.96"/></svg>