<?xml version="1.0" encoding="utf-8"?>
<!-- Generator: Adobe Illustrator 26.0.0, SVG Export Plug-In . SVG Version: 6.00 Build 0)  -->
<svg version="1.1" id="Capa_1" xmlns="http://www.w3.org/2000/svg" xmlns:xlink="http://www.w3.org/1999/xlink" x="0px" y="0px"
	 viewBox="0 0 100 100" style="enable-background:new 0 0 100 100;" xml:space="preserve">
<style type="text/css">
	.st0{fill:#F2A900;}
</style>
<g>
	<path class="st0" d="M99.22,75.65c-17.93,0-35.42,0-53.63,0c5.17-3.98,9.86-7.58,14.55-11.19c0.83-0.64,1.8-0.36,2.71-0.37
		c5.08-0.03,10.15-0.01,15.83-0.01c-4.75-7.92-9.29-15.47-13.93-23.2c-9.02,7.1-17.95,14.12-26.88,21.15
		c-5.29,4.16-10.57,8.32-15.87,12.46c-0.71,0.56-1.33,1.28-2.4,1.28c-5.76-0.02-11.52-0.01-18.07-0.01
		c22.53-17.71,44.43-34.93,66.47-52.26C78.37,40.83,88.66,58.01,99.22,75.65z"/>
</g>
</svg>
